<svg width="700" height="1100" viewBox="0 0 700 1100" fill="none" xmlns="http://www.w3.org/2000/svg">
  <defs>
    <linearGradient id="sea" x1="54" y1="60" x2="644" y2="1030" gradientUnits="userSpaceOnUse">
      <stop offset="0" stop-color="#F2FAFD"/>
      <stop offset="1" stop-color="#E4F2F7"/>
    </linearGradient>
    <linearGradient id="land" x1="188" y1="116" x2="492" y2="955" gradientUnits="userSpaceOnUse">
      <stop offset="0" stop-color="#F6F2E9"/>
      <stop offset="1" stop-color="#ECE4D4"/>
    </linearGradient>
    <filter id="paper" x="-30%" y="-20%" width="160%" height="160%">
      <feTurbulence type="fractalNoise" baseFrequency="0.95" numOctaves="2" seed="7" result="noise"/>
      <feColorMatrix in="noise" type="saturate" values="0"/>
      <feComponentTransfer>
        <feFuncA type="table" tableValues="0 0.045"/>
      </feComponentTransfer>
      <feBlend mode="multiply" in2="SourceGraphic"/>
    </filter>
    <filter id="inkShadow" x="-20%" y="-20%" width="140%" height="140%">
      <feDropShadow dx="0" dy="2" stdDeviation="2.2" flood-color="#8C826E" flood-opacity="0.25"/>
    </filter>
  </defs>

  <rect width="700" height="1100" rx="28" fill="url(#sea)"/>

  <g filter="url(#paper)">
    <path
      d="M332 100
      C365 95 399 108 427 131
      C453 152 472 184 485 217
      C497 248 508 278 526 308
      C545 341 554 379 550 419
      C548 451 558 485 560 519
      C563 556 555 594 541 627
      C525 664 509 694 487 722
      C464 750 435 777 418 808
      C400 839 388 878 371 912
      C355 944 331 969 302 980
      C272 991 237 983 210 960
      C185 937 174 905 172 869
      C170 833 173 799 160 766
      C147 734 124 704 113 670
      C102 634 105 595 112 560
      C120 525 126 492 122 458
      C118 420 122 387 139 353
      C154 321 177 296 198 267
      C220 237 227 203 246 172
      C267 140 298 117 332 100Z"
      fill="url(#land)"
      stroke="#5F5241"
      stroke-width="10"
      stroke-linecap="round"
      stroke-linejoin="round"
      filter="url(#inkShadow)"
    />

    <path
      d="M331 102
      C362 99 394 111 420 133
      C444 153 462 184 475 216
      C487 247 497 276 514 305
      C532 336 541 372 538 411
      C535 443 544 475 547 508
      C549 544 542 579 529 610
      C514 646 500 675 478 702
      C455 730 427 756 410 786
      C392 818 381 855 365 888
      C351 919 329 944 304 954
      C278 964 246 957 223 937
      C201 918 190 891 187 857
      C184 824 187 792 175 761
      C162 730 142 702 132 670
      C121 637 123 601 130 569
      C137 535 142 503 139 472
      C136 435 140 402 155 369
      C170 338 192 315 212 287
      C233 258 239 225 257 196
      C278 164 299 131 331 102Z"
      stroke="#7B6952"
      stroke-width="3.6"
      stroke-linecap="round"
      stroke-linejoin="round"
      opacity="0.6"
    />

    <path d="M213 303C252 330 287 345 325 356C360 366 396 369 431 366" stroke="#A0896D" stroke-width="4.6" stroke-linecap="round" opacity="0.72"/>
    <path d="M177 420C213 444 255 459 297 467C335 474 372 473 406 466" stroke="#A0896D" stroke-width="4.4" stroke-linecap="round" opacity="0.72"/>
    <path d="M159 552C194 575 233 591 272 601C314 612 353 612 391 603" stroke="#A0896D" stroke-width="4.4" stroke-linecap="round" opacity="0.72"/>
    <path d="M181 690C217 709 254 723 292 730C329 737 366 734 401 721" stroke="#A0896D" stroke-width="4.2" stroke-linecap="round" opacity="0.72"/>
    <path d="M220 823C253 839 285 846 318 846C353 845 383 837 412 820" stroke="#A0896D" stroke-width="4.2" stroke-linecap="round" opacity="0.72"/>

    <path d="M434 168C454 195 468 227 480 261" stroke="#9C8468" stroke-width="4" stroke-linecap="round" opacity="0.68"/>
    <path d="M471 271C488 299 505 320 520 341" stroke="#9C8468" stroke-width="3.8" stroke-linecap="round" opacity="0.68"/>
    <path d="M515 358C525 382 531 406 531 431" stroke="#9C8468" stroke-width="3.8" stroke-linecap="round" opacity="0.68"/>

    <ellipse cx="238" cy="1005" rx="74" ry="39" fill="url(#land)" stroke="#5F5241" stroke-width="8"/>
    <ellipse cx="236" cy="1005" rx="62" ry="29" stroke="#8E785E" stroke-width="3" opacity="0.7"/>

    <ellipse cx="548" cy="315" rx="13" ry="9" fill="#EEE6D8" stroke="#6E5D49" stroke-width="3"/>
    <ellipse cx="507" cy="863" rx="9" ry="6" fill="#EEE6D8" stroke="#6E5D49" stroke-width="2.6"/>
    <ellipse cx="132" cy="640" rx="8" ry="5.5" fill="#EEE6D8" stroke="#6E5D49" stroke-width="2.6"/>
  </g>
</svg>

