<svg xmlns="http://www.w3.org/2000/svg" viewBox="0 0 180 180">
  <defs>
    <linearGradient id="bg" x1="0" y1="0" x2="1" y2="1">
      <stop offset="0%" stop-color="#0a6a75"/>
      <stop offset="100%" stop-color="#0c4157"/>
    </linearGradient>
  </defs>
  <rect width="180" height="180" rx="40" fill="url(#bg)"/>
  <path d="M90 34c-27 0-49 22-49 49 0 32 41 65 49 71 8-6 49-39 49-71 0-27-22-49-49-49z" fill="#f2fbfa"/>
  <circle cx="90" cy="82" r="24" fill="#ffffff"/>
  <path d="M90 58a24 24 0 0 1 0 48 12 12 0 0 0 0-24 12 12 0 0 1 0-24z" fill="#e74c3c"/>
  <path d="M90 106a24 24 0 0 1 0-48 12 12 0 0 0 0 24 12 12 0 0 1 0 24z" fill="#2b67d1"/>
</svg>

